<?xml version="1.0" encoding="utf-8" standalone="no"?>
<!DOCTYPE svg PUBLIC "-//W3C//DTD SVG 1.1//EN"
  "http://www.w3.org/Graphics/SVG/1.1/DTD/svg11.dtd">
<!-- Created with matplotlib (https://matplotlib.org/) -->
<svg height="172.0036pt" version="1.1" viewBox="0 0 266.384052 172.0036" width="266.384052pt" xmlns="http://www.w3.org/2000/svg" xmlns:xlink="http://www.w3.org/1999/xlink">
 <metadata>
  <rdf:RDF xmlns:cc="http://creativecommons.org/ns#" xmlns:dc="http://purl.org/dc/elements/1.1/" xmlns:rdf="http://www.w3.org/1999/02/22-rdf-syntax-ns#">
   <cc:Work>
    <dc:type rdf:resource="http://purl.org/dc/dcmitype/StillImage"/>
    <dc:date>2021-03-02T23:23:52.956302</dc:date>
    <dc:format>image/svg+xml</dc:format>
    <dc:creator>
     <cc:Agent>
      <dc:title>Matplotlib v3.3.4, https://matplotlib.org/</dc:title>
     </cc:Agent>
    </dc:creator>
   </cc:Work>
  </rdf:RDF>
 </metadata>
 <defs>
  <style type="text/css">*{stroke-linecap:butt;stroke-linejoin:round;}</style>
 </defs>
 <g id="figure_1">
  <g id="patch_1">
   <path d="M 0 172.0036 
L 266.384052 172.0036 
L 266.384052 0 
L 0 0 
z
" style="fill:none;"/>
  </g>
  <g id="axes_1">
   <g id="patch_2">
    <path clip-path="url(#pb78cd17cb0)" d="M 176.210392 126.445665 
L 188.262432 126.445665 
L 182.236412 135.13704 
z
" style="fill:#656565;"/>
   </g>
   <g id="patch_3">
    <path clip-path="url(#pb78cd17cb0)" d="M 222.564392 126.445665 
L 234.616432 126.445665 
L 228.590412 135.13704 
z
" style="fill:#656565;"/>
   </g>
   <g id="line2d_1">
    <path clip-path="url(#pb78cd17cb0)" d="M 64.497252 44.2832 
L 254.548652 44.2832 
" style="fill:none;stroke:#656565;stroke-linecap:square;stroke-width:1.4;"/>
   </g>
   <g id="line2d_2">
    <path clip-path="url(#pb78cd17cb0)" d="M 64.497252 90.6372 
L 254.548652 90.6372 
" style="fill:none;stroke:#656565;stroke-linecap:square;stroke-width:1.4;"/>
   </g>
   <g id="line2d_3">
    <path clip-path="url(#pb78cd17cb0)" d="M 64.497252 135.484695 
L 254.548652 135.484695 
" style="fill:none;stroke:#656565;stroke-linecap:square;stroke-width:1.4;"/>
   </g>
   <g id="line2d_4">
    <path clip-path="url(#pb78cd17cb0)" d="M 64.497252 138.497705 
L 254.548652 138.497705 
" style="fill:none;stroke:#656565;stroke-linecap:square;stroke-width:1.4;"/>
   </g>
   <g id="line2d_5">
    <path clip-path="url(#pb78cd17cb0)" d="M 135.882412 90.6372 
L 135.882412 44.2832 
" style="fill:none;stroke:#656565;stroke-linecap:square;stroke-width:1.4;"/>
   </g>
   <g id="line2d_6">
    <path clip-path="url(#pb78cd17cb0)" d="M 183.742917 44.2832 
L 183.742917 126.445665 
" style="fill:none;stroke:#656565;stroke-linecap:square;stroke-width:1.4;"/>
   </g>
   <g id="line2d_7">
    <path clip-path="url(#pb78cd17cb0)" d="M 180.729907 44.2832 
L 180.729907 126.445665 
" style="fill:none;stroke:#656565;stroke-linecap:square;stroke-width:1.4;"/>
   </g>
   <g id="line2d_8">
    <path clip-path="url(#pb78cd17cb0)" d="M 230.096917 90.6372 
L 230.096917 126.445665 
" style="fill:none;stroke:#656565;stroke-linecap:square;stroke-width:1.4;"/>
   </g>
   <g id="line2d_9">
    <path clip-path="url(#pb78cd17cb0)" d="M 227.083907 90.6372 
L 227.083907 126.445665 
" style="fill:none;stroke:#656565;stroke-linecap:square;stroke-width:1.4;"/>
   </g>
   <g id="line2d_10">
    <path clip-path="url(#pb78cd17cb0)" d="M 73.768052 141.6266 
L 78.403452 132.3558 
" style="fill:none;stroke:#656565;stroke-linecap:square;stroke-width:1.5;"/>
   </g>
   <g id="patch_4">
    <path clip-path="url(#pb78cd17cb0)" d="M 79.098762 59.34825 
L 99.958062 59.34825 
Q 104.593462 59.34825 104.593462 54.71285 
L 104.593462 33.85355 
Q 104.593462 29.21815 99.958062 29.21815 
L 79.098762 29.21815 
Q 74.463362 29.21815 74.463362 33.85355 
L 74.463362 54.71285 
Q 74.463362 59.34825 79.098762 59.34825 
z
" style="fill:#1d1d1d;stroke:#656565;stroke-linejoin:miter;stroke-width:1.05;"/>
   </g>
   <g id="patch_5">
    <path clip-path="url(#pb78cd17cb0)" d="M 135.882412 48.802715 
C 137.081002 48.802715 138.230661 48.32651 139.078192 47.47898 
C 139.925723 46.631449 140.401927 45.481789 140.401927 44.2832 
C 140.401927 43.084611 139.925723 41.934951 139.078192 41.08742 
C 138.230661 40.23989 137.081002 39.763685 135.882412 39.763685 
C 134.683823 39.763685 133.534163 40.23989 132.686633 41.08742 
C 131.839102 41.934951 131.362897 43.084611 131.362897 44.2832 
C 131.362897 45.481789 131.839102 46.631449 132.686633 47.47898 
C 133.534163 48.32651 134.683823 48.802715 135.882412 48.802715 
z
" style="fill:#656565;stroke:#656565;stroke-linejoin:miter;stroke-width:1.05;"/>
   </g>
   <g id="patch_6">
    <path clip-path="url(#pb78cd17cb0)" d="M 135.882412 101.182735 
C 138.679121 101.182735 141.36166 100.071591 143.339232 98.094019 
C 145.316803 96.116448 146.427947 93.433909 146.427947 90.6372 
C 146.427947 87.840491 145.316803 85.157952 143.339232 83.180381 
C 141.36166 81.202809 138.679121 80.091665 135.882412 80.091665 
C 133.085704 80.091665 130.403165 81.202809 128.425593 83.180381 
C 126.448021 85.157952 125.336877 87.840491 125.336877 90.6372 
C 125.336877 93.433909 126.448021 96.116448 128.425593 98.094019 
C 130.403165 100.071591 133.085704 101.182735 135.882412 101.182735 
z
" style="fill:#656565;stroke:#656565;stroke-linejoin:miter;stroke-width:1.4;"/>
   </g>
   <g id="patch_7">
    <path clip-path="url(#pb78cd17cb0)" d="M 171.806762 59.34825 
L 192.666062 59.34825 
Q 197.301462 59.34825 197.301462 54.71285 
L 197.301462 33.85355 
Q 197.301462 29.21815 192.666062 29.21815 
L 171.806762 29.21815 
Q 167.171362 29.21815 167.171362 33.85355 
L 167.171362 54.71285 
Q 167.171362 59.34825 171.806762 59.34825 
z
" style="fill:#1d1d1d;stroke:#656565;stroke-linejoin:miter;stroke-width:1.05;"/>
   </g>
   <g id="patch_8">
    <path clip-path="url(#pb78cd17cb0)" d="M 192.781947 48.802715 
C 192.781947 46.006938 191.670145 43.322809 189.693232 41.345896 
C 187.716319 39.368983 185.032189 38.25718 182.236412 38.25718 
C 179.440635 38.25718 176.756506 39.368983 174.779593 41.345896 
C 172.80268 43.322809 171.690877 46.006938 171.690877 48.802715 
" style="fill:none;stroke:#d00e7b;stroke-linejoin:miter;stroke-width:1.4;"/>
   </g>
   <g id="patch_9">
    <path clip-path="url(#pb78cd17cb0)" d="M 218.160762 105.70225 
L 239.020062 105.70225 
Q 243.655462 105.70225 243.655462 101.06685 
L 243.655462 80.20755 
Q 243.655462 75.57215 239.020062 75.57215 
L 218.160762 75.57215 
Q 213.525362 75.57215 213.525362 80.20755 
L 213.525362 101.06685 
Q 213.525362 105.70225 218.160762 105.70225 
z
" style="fill:#1d1d1d;stroke:#656565;stroke-linejoin:miter;stroke-width:1.05;"/>
   </g>
   <g id="patch_10">
    <path clip-path="url(#pb78cd17cb0)" d="M 239.135947 95.156715 
C 239.135947 92.360938 238.024145 89.676809 236.047232 87.699896 
C 234.070319 85.722983 231.386189 84.61118 228.590412 84.61118 
C 225.794635 84.61118 223.110506 85.722983 221.133593 87.699896 
C 219.15668 89.676809 218.044877 92.360938 218.044877 95.156715 
" style="fill:none;stroke:#d00e7b;stroke-linejoin:miter;stroke-width:1.4;"/>
   </g>
   <g id="line2d_11">
    <path clip-path="url(#pb78cd17cb0)" d="M 182.236412 48.802715 
L 192.781947 38.25718 
" style="fill:none;stroke:#d00e7b;stroke-linecap:square;stroke-width:1.4;"/>
   </g>
   <g id="line2d_12">
    <path clip-path="url(#pb78cd17cb0)" d="M 228.590412 95.156715 
L 239.135947 84.61118 
" style="fill:none;stroke:#d00e7b;stroke-linecap:square;stroke-width:1.4;"/>
   </g>
   <g id="line2d_13">
    <path clip-path="url(#pb78cd17cb0)" d="M 135.882412 96.66322 
L 135.882412 84.61118 
" style="fill:none;stroke:#ffffff;stroke-linecap:square;stroke-width:1.4;"/>
   </g>
   <g id="line2d_14">
    <path clip-path="url(#pb78cd17cb0)" d="M 129.856392 90.6372 
L 141.908432 90.6372 
" style="fill:none;stroke:#ffffff;stroke-linecap:square;stroke-width:1.4;"/>
   </g>
   <g id="text_1">
    <g clip-path="url(#pb78cd17cb0)">
     <!-- H -->
     <g style="fill:#2495d3;" transform="translate(84.640209 47.870387)scale(0.13 -0.13)">
      <defs>
       <path d="M 9.8125 72.90625 
L 19.671875 72.90625 
L 19.671875 43.015625 
L 55.515625 43.015625 
L 55.515625 72.90625 
L 65.375 72.90625 
L 65.375 0 
L 55.515625 0 
L 55.515625 34.71875 
L 19.671875 34.71875 
L 19.671875 0 
L 9.8125 0 
z
" id="DejaVuSans-72"/>
      </defs>
      <use xlink:href="#DejaVuSans-72"/>
     </g>
    </g>
   </g>
   <g id="text_2">
    <g clip-path="url(#pb78cd17cb0)">
     <!-- 0 -->
     <g style="fill:#ffffff;" transform="translate(193.824912 130.192925)scale(0.104 -0.104)">
      <defs>
       <path d="M 31.78125 66.40625 
Q 24.171875 66.40625 20.328125 58.90625 
Q 16.5 51.421875 16.5 36.375 
Q 16.5 21.390625 20.328125 13.890625 
Q 24.171875 6.390625 31.78125 6.390625 
Q 39.453125 6.390625 43.28125 13.890625 
Q 47.125 21.390625 47.125 36.375 
Q 47.125 51.421875 43.28125 58.90625 
Q 39.453125 66.40625 31.78125 66.40625 
z
M 31.78125 74.21875 
Q 44.046875 74.21875 50.515625 64.515625 
Q 56.984375 54.828125 56.984375 36.375 
Q 56.984375 17.96875 50.515625 8.265625 
Q 44.046875 -1.421875 31.78125 -1.421875 
Q 19.53125 -1.421875 13.0625 8.265625 
Q 6.59375 17.96875 6.59375 36.375 
Q 6.59375 54.828125 13.0625 64.515625 
Q 19.53125 74.21875 31.78125 74.21875 
z
" id="DejaVuSans-48"/>
      </defs>
      <use xlink:href="#DejaVuSans-48"/>
     </g>
    </g>
   </g>
   <g id="text_3">
    <g clip-path="url(#pb78cd17cb0)">
     <!-- 1 -->
     <g style="fill:#ffffff;" transform="translate(240.178912 130.192925)scale(0.104 -0.104)">
      <defs>
       <path d="M 12.40625 8.296875 
L 28.515625 8.296875 
L 28.515625 63.921875 
L 10.984375 60.40625 
L 10.984375 69.390625 
L 28.421875 72.90625 
L 38.28125 72.90625 
L 38.28125 8.296875 
L 54.390625 8.296875 
L 54.390625 0 
L 12.40625 0 
z
" id="DejaVuSans-49"/>
      </defs>
      <use xlink:href="#DejaVuSans-49"/>
     </g>
    </g>
   </g>
   <g id="text_4">
    <g clip-path="url(#pb78cd17cb0)">
     <!-- ${q}_{0}$ -->
     <g style="fill:#ffffff;" transform="translate(37.188952 48.734177)scale(0.1625 -0.1625)">
      <defs>
       <path d="M 41.703125 8.203125 
Q 38.09375 3.46875 33.171875 1.015625 
Q 28.265625 -1.421875 22.3125 -1.421875 
Q 14.015625 -1.421875 9.296875 4.171875 
Q 4.59375 9.765625 4.59375 19.578125 
Q 4.59375 27.484375 7.5 34.859375 
Q 10.40625 42.234375 15.828125 48.09375 
Q 19.34375 51.90625 23.90625 53.953125 
Q 28.46875 56 33.5 56 
Q 39.546875 56 43.453125 53.609375 
Q 47.359375 51.21875 49.125 46.390625 
L 50.6875 54.59375 
L 59.71875 54.59375 
L 45.125 -20.609375 
L 36.078125 -20.609375 
z
M 13.921875 20.90625 
Q 13.921875 13.671875 16.9375 9.890625 
Q 19.96875 6.109375 25.6875 6.109375 
Q 34.1875 6.109375 40.1875 14.234375 
Q 46.1875 22.359375 46.1875 33.984375 
Q 46.1875 41.015625 43.078125 44.75 
Q 39.984375 48.484375 34.1875 48.484375 
Q 29.9375 48.484375 26.3125 46.5 
Q 22.703125 44.53125 20.015625 40.71875 
Q 17.1875 36.71875 15.546875 31.34375 
Q 13.921875 25.984375 13.921875 20.90625 
z
" id="DejaVuSans-Oblique-113"/>
      </defs>
      <use xlink:href="#DejaVuSans-Oblique-113"/>
      <use transform="translate(63.476562 -16.40625)scale(0.7)" xlink:href="#DejaVuSans-48"/>
     </g>
    </g>
   </g>
   <g id="text_5">
    <g clip-path="url(#pb78cd17cb0)">
     <!-- ${q}_{1}$ -->
     <g style="fill:#ffffff;" transform="translate(37.188952 95.088177)scale(0.1625 -0.1625)">
      <use xlink:href="#DejaVuSans-Oblique-113"/>
      <use transform="translate(63.476562 -16.40625)scale(0.7)" xlink:href="#DejaVuSans-49"/>
     </g>
    </g>
   </g>
   <g id="text_6">
    <g clip-path="url(#pb78cd17cb0)">
     <!-- 2 -->
     <g style="fill:#ffffff;" transform="translate(69.132652 130.192925)scale(0.104 -0.104)">
      <defs>
       <path d="M 19.1875 8.296875 
L 53.609375 8.296875 
L 53.609375 0 
L 7.328125 0 
L 7.328125 8.296875 
Q 12.9375 14.109375 22.625 23.890625 
Q 32.328125 33.6875 34.8125 36.53125 
Q 39.546875 41.84375 41.421875 45.53125 
Q 43.3125 49.21875 43.3125 52.78125 
Q 43.3125 58.59375 39.234375 62.25 
Q 35.15625 65.921875 28.609375 65.921875 
Q 23.96875 65.921875 18.8125 64.3125 
Q 13.671875 62.703125 7.8125 59.421875 
L 7.8125 69.390625 
Q 13.765625 71.78125 18.9375 73 
Q 24.125 74.21875 28.421875 74.21875 
Q 39.75 74.21875 46.484375 68.546875 
Q 53.21875 62.890625 53.21875 53.421875 
Q 53.21875 48.921875 51.53125 44.890625 
Q 49.859375 40.875 45.40625 35.40625 
Q 44.1875 33.984375 37.640625 27.21875 
Q 31.109375 20.453125 19.1875 8.296875 
z
" id="DejaVuSans-50"/>
      </defs>
      <use xlink:href="#DejaVuSans-50"/>
     </g>
    </g>
   </g>
   <g id="text_7">
    <g clip-path="url(#pb78cd17cb0)">
     <!-- c -->
     <g style="fill:#ffffff;" transform="translate(46.291491 141.475184)scale(0.1625 -0.1625)">
      <defs>
       <path d="M 48.78125 52.59375 
L 48.78125 44.1875 
Q 44.96875 46.296875 41.140625 47.34375 
Q 37.3125 48.390625 33.40625 48.390625 
Q 24.65625 48.390625 19.8125 42.84375 
Q 14.984375 37.3125 14.984375 27.296875 
Q 14.984375 17.28125 19.8125 11.734375 
Q 24.65625 6.203125 33.40625 6.203125 
Q 37.3125 6.203125 41.140625 7.25 
Q 44.96875 8.296875 48.78125 10.40625 
L 48.78125 2.09375 
Q 45.015625 0.34375 40.984375 -0.53125 
Q 36.96875 -1.421875 32.421875 -1.421875 
Q 20.0625 -1.421875 12.78125 6.34375 
Q 5.515625 14.109375 5.515625 27.296875 
Q 5.515625 40.671875 12.859375 48.328125 
Q 20.21875 56 33.015625 56 
Q 37.15625 56 41.109375 55.140625 
Q 45.0625 54.296875 48.78125 52.59375 
z
" id="DejaVuSans-99"/>
      </defs>
      <use xlink:href="#DejaVuSans-99"/>
     </g>
    </g>
   </g>
  </g>
 </g>
 <defs>
  <clipPath id="pb78cd17cb0">
   <rect height="157.6036" width="251.984052" x="7.2" y="7.2"/>
  </clipPath>
 </defs>
</svg>
